<mxfile host="app.diagrams.net" modified="2021-09-16T14:59:47.551Z" agent="5.0 (Macintosh; Intel Mac OS X 10_15_7) AppleWebKit/537.36 (KHTML, like Gecko) Chrome/93.0.4577.63 Safari/537.36" etag="qAxQAebtBi2fdG0gM5Ju" version="15.1.4" type="github">
  <diagram id="fnx0d8_GO2KY2ofWuKNm" name="Page-1">
    <mxGraphModel dx="3411" dy="1871" grid="1" gridSize="10" guides="1" tooltips="1" connect="1" arrows="1" fold="1" page="0" pageScale="1" pageWidth="827" pageHeight="1169" math="0" shadow="0">
      <root>
        <mxCell id="0" />
        <mxCell id="1" parent="0" />
        <mxCell id="vW2DTRvJvBZjn9QqDSF9-127" value="N" style="edgeStyle=orthogonalEdgeStyle;curved=1;rounded=0;orthogonalLoop=1;jettySize=auto;html=1;exitX=0.75;exitY=0;exitDx=0;exitDy=0;entryX=0.5;entryY=1;entryDx=0;entryDy=0;strokeWidth=2;fillColor=#ffe6cc;strokeColor=#d79b00;" edge="1" parent="1" source="vW2DTRvJvBZjn9QqDSF9-1" target="vW2DTRvJvBZjn9QqDSF9-119">
          <mxGeometry relative="1" as="geometry" />
        </mxCell>
        <mxCell id="vW2DTRvJvBZjn9QqDSF9-136" value="N" style="edgeStyle=orthogonalEdgeStyle;curved=1;rounded=0;orthogonalLoop=1;jettySize=auto;html=1;exitX=0.25;exitY=0;exitDx=0;exitDy=0;entryX=0.5;entryY=1;entryDx=0;entryDy=0;strokeWidth=2;fillColor=#ffe6cc;strokeColor=#d79b00;" edge="1" parent="1" source="vW2DTRvJvBZjn9QqDSF9-1" target="vW2DTRvJvBZjn9QqDSF9-88">
          <mxGeometry relative="1" as="geometry" />
        </mxCell>
        <mxCell id="vW2DTRvJvBZjn9QqDSF9-137" value="N" style="edgeStyle=orthogonalEdgeStyle;curved=1;rounded=0;orthogonalLoop=1;jettySize=auto;html=1;exitX=0.5;exitY=0;exitDx=0;exitDy=0;strokeWidth=2;fillColor=#ffe6cc;strokeColor=#d79b00;" edge="1" parent="1" source="vW2DTRvJvBZjn9QqDSF9-1" target="vW2DTRvJvBZjn9QqDSF9-117">
          <mxGeometry relative="1" as="geometry" />
        </mxCell>
        <mxCell id="vW2DTRvJvBZjn9QqDSF9-139" value="N" style="edgeStyle=orthogonalEdgeStyle;curved=1;rounded=0;orthogonalLoop=1;jettySize=auto;html=1;exitX=1;exitY=0.5;exitDx=0;exitDy=0;entryX=0.5;entryY=1;entryDx=0;entryDy=0;strokeWidth=2;fillColor=#ffe6cc;strokeColor=#d79b00;" edge="1" parent="1" source="vW2DTRvJvBZjn9QqDSF9-1" target="vW2DTRvJvBZjn9QqDSF9-89">
          <mxGeometry relative="1" as="geometry" />
        </mxCell>
        <mxCell id="vW2DTRvJvBZjn9QqDSF9-144" style="edgeStyle=orthogonalEdgeStyle;curved=1;rounded=0;orthogonalLoop=1;jettySize=auto;html=1;exitX=0.5;exitY=1;exitDx=0;exitDy=0;entryX=0.76;entryY=0;entryDx=0;entryDy=0;entryPerimeter=0;" edge="1" parent="1" source="vW2DTRvJvBZjn9QqDSF9-1" target="vW2DTRvJvBZjn9QqDSF9-2">
          <mxGeometry relative="1" as="geometry" />
        </mxCell>
        <mxCell id="vW2DTRvJvBZjn9QqDSF9-145" style="edgeStyle=orthogonalEdgeStyle;curved=1;rounded=0;orthogonalLoop=1;jettySize=auto;html=1;exitX=0.5;exitY=1;exitDx=0;exitDy=0;entryX=1;entryY=0;entryDx=0;entryDy=0;" edge="1" parent="1" source="vW2DTRvJvBZjn9QqDSF9-1" target="vW2DTRvJvBZjn9QqDSF9-14">
          <mxGeometry relative="1" as="geometry" />
        </mxCell>
        <mxCell id="vW2DTRvJvBZjn9QqDSF9-146" style="edgeStyle=orthogonalEdgeStyle;curved=1;rounded=0;orthogonalLoop=1;jettySize=auto;html=1;exitX=0.5;exitY=1;exitDx=0;exitDy=0;" edge="1" parent="1" source="vW2DTRvJvBZjn9QqDSF9-1" target="vW2DTRvJvBZjn9QqDSF9-3">
          <mxGeometry relative="1" as="geometry" />
        </mxCell>
        <mxCell id="vW2DTRvJvBZjn9QqDSF9-147" style="edgeStyle=orthogonalEdgeStyle;curved=1;rounded=0;orthogonalLoop=1;jettySize=auto;html=1;exitX=0.5;exitY=1;exitDx=0;exitDy=0;" edge="1" parent="1" source="vW2DTRvJvBZjn9QqDSF9-1" target="vW2DTRvJvBZjn9QqDSF9-4">
          <mxGeometry relative="1" as="geometry" />
        </mxCell>
        <mxCell id="vW2DTRvJvBZjn9QqDSF9-148" style="edgeStyle=orthogonalEdgeStyle;curved=1;rounded=0;orthogonalLoop=1;jettySize=auto;html=1;exitX=0.5;exitY=1;exitDx=0;exitDy=0;" edge="1" parent="1" source="vW2DTRvJvBZjn9QqDSF9-1" target="vW2DTRvJvBZjn9QqDSF9-16">
          <mxGeometry relative="1" as="geometry" />
        </mxCell>
        <mxCell id="vW2DTRvJvBZjn9QqDSF9-149" style="edgeStyle=orthogonalEdgeStyle;curved=1;rounded=0;orthogonalLoop=1;jettySize=auto;html=1;exitX=0.5;exitY=1;exitDx=0;exitDy=0;entryX=0.5;entryY=0;entryDx=0;entryDy=0;" edge="1" parent="1" source="vW2DTRvJvBZjn9QqDSF9-1" target="vW2DTRvJvBZjn9QqDSF9-5">
          <mxGeometry relative="1" as="geometry" />
        </mxCell>
        <mxCell id="vW2DTRvJvBZjn9QqDSF9-150" style="edgeStyle=orthogonalEdgeStyle;curved=1;rounded=0;orthogonalLoop=1;jettySize=auto;html=1;exitX=0.5;exitY=1;exitDx=0;exitDy=0;" edge="1" parent="1" source="vW2DTRvJvBZjn9QqDSF9-1" target="vW2DTRvJvBZjn9QqDSF9-53">
          <mxGeometry relative="1" as="geometry" />
        </mxCell>
        <mxCell id="vW2DTRvJvBZjn9QqDSF9-151" style="edgeStyle=orthogonalEdgeStyle;curved=1;rounded=0;orthogonalLoop=1;jettySize=auto;html=1;exitX=0.5;exitY=1;exitDx=0;exitDy=0;entryX=0.5;entryY=0;entryDx=0;entryDy=0;" edge="1" parent="1" source="vW2DTRvJvBZjn9QqDSF9-1" target="vW2DTRvJvBZjn9QqDSF9-20">
          <mxGeometry relative="1" as="geometry" />
        </mxCell>
        <mxCell id="vW2DTRvJvBZjn9QqDSF9-152" style="edgeStyle=orthogonalEdgeStyle;curved=1;rounded=0;orthogonalLoop=1;jettySize=auto;html=1;exitX=0.5;exitY=1;exitDx=0;exitDy=0;entryX=0.5;entryY=0;entryDx=0;entryDy=0;" edge="1" parent="1" source="vW2DTRvJvBZjn9QqDSF9-1" target="vW2DTRvJvBZjn9QqDSF9-10">
          <mxGeometry relative="1" as="geometry" />
        </mxCell>
        <mxCell id="vW2DTRvJvBZjn9QqDSF9-153" style="edgeStyle=orthogonalEdgeStyle;curved=1;rounded=0;orthogonalLoop=1;jettySize=auto;html=1;exitX=0.5;exitY=1;exitDx=0;exitDy=0;entryX=0.5;entryY=0;entryDx=0;entryDy=0;" edge="1" parent="1" source="vW2DTRvJvBZjn9QqDSF9-1" target="vW2DTRvJvBZjn9QqDSF9-22">
          <mxGeometry relative="1" as="geometry" />
        </mxCell>
        <mxCell id="vW2DTRvJvBZjn9QqDSF9-154" style="edgeStyle=orthogonalEdgeStyle;curved=1;rounded=0;orthogonalLoop=1;jettySize=auto;html=1;exitX=0.5;exitY=1;exitDx=0;exitDy=0;entryX=0.5;entryY=0;entryDx=0;entryDy=0;" edge="1" parent="1" source="vW2DTRvJvBZjn9QqDSF9-1" target="vW2DTRvJvBZjn9QqDSF9-29">
          <mxGeometry relative="1" as="geometry" />
        </mxCell>
        <mxCell id="vW2DTRvJvBZjn9QqDSF9-155" style="edgeStyle=orthogonalEdgeStyle;curved=1;rounded=0;orthogonalLoop=1;jettySize=auto;html=1;exitX=0.5;exitY=1;exitDx=0;exitDy=0;entryX=0.5;entryY=0;entryDx=0;entryDy=0;" edge="1" parent="1" source="vW2DTRvJvBZjn9QqDSF9-1" target="vW2DTRvJvBZjn9QqDSF9-25">
          <mxGeometry relative="1" as="geometry" />
        </mxCell>
        <mxCell id="vW2DTRvJvBZjn9QqDSF9-156" style="edgeStyle=orthogonalEdgeStyle;curved=1;rounded=0;orthogonalLoop=1;jettySize=auto;html=1;exitX=0.5;exitY=1;exitDx=0;exitDy=0;entryX=0.5;entryY=0;entryDx=0;entryDy=0;" edge="1" parent="1" source="vW2DTRvJvBZjn9QqDSF9-1" target="vW2DTRvJvBZjn9QqDSF9-21">
          <mxGeometry relative="1" as="geometry" />
        </mxCell>
        <mxCell id="vW2DTRvJvBZjn9QqDSF9-157" style="edgeStyle=orthogonalEdgeStyle;curved=1;rounded=0;orthogonalLoop=1;jettySize=auto;html=1;exitX=0.5;exitY=1;exitDx=0;exitDy=0;entryX=0.5;entryY=0;entryDx=0;entryDy=0;" edge="1" parent="1" source="vW2DTRvJvBZjn9QqDSF9-1" target="vW2DTRvJvBZjn9QqDSF9-27">
          <mxGeometry relative="1" as="geometry" />
        </mxCell>
        <mxCell id="vW2DTRvJvBZjn9QqDSF9-158" style="edgeStyle=orthogonalEdgeStyle;curved=1;rounded=0;orthogonalLoop=1;jettySize=auto;html=1;exitX=0.5;exitY=1;exitDx=0;exitDy=0;entryX=0.5;entryY=0;entryDx=0;entryDy=0;" edge="1" parent="1" source="vW2DTRvJvBZjn9QqDSF9-1" target="vW2DTRvJvBZjn9QqDSF9-26">
          <mxGeometry relative="1" as="geometry" />
        </mxCell>
        <mxCell id="vW2DTRvJvBZjn9QqDSF9-159" style="edgeStyle=orthogonalEdgeStyle;curved=1;rounded=0;orthogonalLoop=1;jettySize=auto;html=1;exitX=0.5;exitY=1;exitDx=0;exitDy=0;entryX=0.5;entryY=0;entryDx=0;entryDy=0;" edge="1" parent="1" source="vW2DTRvJvBZjn9QqDSF9-1" target="vW2DTRvJvBZjn9QqDSF9-28">
          <mxGeometry relative="1" as="geometry" />
        </mxCell>
        <mxCell id="vW2DTRvJvBZjn9QqDSF9-160" style="edgeStyle=orthogonalEdgeStyle;curved=1;rounded=0;orthogonalLoop=1;jettySize=auto;html=1;exitX=0.5;exitY=1;exitDx=0;exitDy=0;entryX=0.5;entryY=0;entryDx=0;entryDy=0;" edge="1" parent="1" source="vW2DTRvJvBZjn9QqDSF9-1" target="vW2DTRvJvBZjn9QqDSF9-23">
          <mxGeometry relative="1" as="geometry" />
        </mxCell>
        <mxCell id="vW2DTRvJvBZjn9QqDSF9-162" value="M" style="edgeStyle=orthogonalEdgeStyle;curved=1;rounded=0;orthogonalLoop=1;jettySize=auto;html=1;exitX=1;exitY=0.5;exitDx=0;exitDy=0;strokeWidth=2;fillColor=#ffe6cc;strokeColor=#d79b00;entryX=0.5;entryY=1;entryDx=0;entryDy=0;" edge="1" parent="1" source="vW2DTRvJvBZjn9QqDSF9-1" target="vW2DTRvJvBZjn9QqDSF9-87">
          <mxGeometry relative="1" as="geometry" />
        </mxCell>
        <mxCell id="vW2DTRvJvBZjn9QqDSF9-180" style="edgeStyle=orthogonalEdgeStyle;curved=1;rounded=0;orthogonalLoop=1;jettySize=auto;html=1;exitX=0.5;exitY=1;exitDx=0;exitDy=0;entryX=0.5;entryY=0;entryDx=0;entryDy=0;strokeWidth=1;" edge="1" parent="1" source="vW2DTRvJvBZjn9QqDSF9-1" target="vW2DTRvJvBZjn9QqDSF9-179">
          <mxGeometry relative="1" as="geometry" />
        </mxCell>
        <mxCell id="vW2DTRvJvBZjn9QqDSF9-1" value="&lt;font style=&quot;font-size: 18px&quot;&gt;Product&lt;/font&gt;" style="whiteSpace=wrap;html=1;align=center;fillColor=#dae8fc;strokeColor=#6c8ebf;" vertex="1" parent="1">
          <mxGeometry x="340" y="170" width="100" height="40" as="geometry" />
        </mxCell>
        <mxCell id="vW2DTRvJvBZjn9QqDSF9-2" value="id" style="ellipse;whiteSpace=wrap;html=1;align=center;fontStyle=4;fillColor=#f5f5f5;strokeColor=#666666;fontColor=#333333;" vertex="1" parent="1">
          <mxGeometry x="110" y="260" width="100" height="40" as="geometry" />
        </mxCell>
        <mxCell id="vW2DTRvJvBZjn9QqDSF9-3" value="name" style="ellipse;whiteSpace=wrap;html=1;align=center;fillColor=#f5f5f5;strokeColor=#666666;fontColor=#333333;" vertex="1" parent="1">
          <mxGeometry x="250" y="260" width="100" height="40" as="geometry" />
        </mxCell>
        <mxCell id="vW2DTRvJvBZjn9QqDSF9-4" value="weight" style="ellipse;whiteSpace=wrap;html=1;align=center;fillColor=#f5f5f5;strokeColor=#666666;fontColor=#333333;" vertex="1" parent="1">
          <mxGeometry x="250" y="320" width="100" height="40" as="geometry" />
        </mxCell>
        <mxCell id="vW2DTRvJvBZjn9QqDSF9-5" value="Wheel size" style="ellipse;shape=doubleEllipse;margin=3;whiteSpace=wrap;html=1;align=center;fillColor=#f5f5f5;strokeColor=#666666;fontColor=#333333;" vertex="1" parent="1">
          <mxGeometry x="390" y="320" width="100" height="40" as="geometry" />
        </mxCell>
        <mxCell id="vW2DTRvJvBZjn9QqDSF9-10" value="Model" style="ellipse;whiteSpace=wrap;html=1;align=center;fillColor=#f5f5f5;strokeColor=#666666;fontColor=#333333;" vertex="1" parent="1">
          <mxGeometry x="660" y="260" width="100" height="40" as="geometry" />
        </mxCell>
        <mxCell id="vW2DTRvJvBZjn9QqDSF9-14" value="Status" style="ellipse;shape=doubleEllipse;margin=3;whiteSpace=wrap;html=1;align=center;fillColor=#f5f5f5;strokeColor=#666666;fontColor=#333333;" vertex="1" parent="1">
          <mxGeometry x="110" y="320" width="100" height="40" as="geometry" />
        </mxCell>
        <mxCell id="vW2DTRvJvBZjn9QqDSF9-78" style="edgeStyle=orthogonalEdgeStyle;curved=1;rounded=0;orthogonalLoop=1;jettySize=auto;html=1;exitX=0.75;exitY=0;exitDx=0;exitDy=0;entryX=0.338;entryY=0.958;entryDx=0;entryDy=0;entryPerimeter=0;" edge="1" parent="1" source="vW2DTRvJvBZjn9QqDSF9-15" target="vW2DTRvJvBZjn9QqDSF9-77">
          <mxGeometry relative="1" as="geometry" />
        </mxCell>
        <mxCell id="vW2DTRvJvBZjn9QqDSF9-79" style="edgeStyle=orthogonalEdgeStyle;curved=1;rounded=0;orthogonalLoop=1;jettySize=auto;html=1;exitX=0.25;exitY=0;exitDx=0;exitDy=0;entryX=0.672;entryY=1;entryDx=0;entryDy=0;entryPerimeter=0;" edge="1" parent="1" source="vW2DTRvJvBZjn9QqDSF9-15" target="vW2DTRvJvBZjn9QqDSF9-76">
          <mxGeometry relative="1" as="geometry" />
        </mxCell>
        <mxCell id="vW2DTRvJvBZjn9QqDSF9-161" value="M" style="edgeStyle=orthogonalEdgeStyle;curved=1;rounded=0;orthogonalLoop=1;jettySize=auto;html=1;exitX=0.5;exitY=1;exitDx=0;exitDy=0;entryX=0.5;entryY=0;entryDx=0;entryDy=0;strokeWidth=2;fillColor=#ffe6cc;strokeColor=#d79b00;" edge="1" parent="1" source="vW2DTRvJvBZjn9QqDSF9-15" target="vW2DTRvJvBZjn9QqDSF9-88">
          <mxGeometry relative="1" as="geometry" />
        </mxCell>
        <mxCell id="vW2DTRvJvBZjn9QqDSF9-15" value="Image" style="whiteSpace=wrap;html=1;align=center;fillColor=#fff2cc;strokeColor=#d6b656;" vertex="1" parent="1">
          <mxGeometry x="-170" y="-400" width="100" height="40" as="geometry" />
        </mxCell>
        <mxCell id="vW2DTRvJvBZjn9QqDSF9-16" value="description" style="ellipse;whiteSpace=wrap;html=1;align=center;fillColor=#f5f5f5;strokeColor=#666666;fontColor=#333333;" vertex="1" parent="1">
          <mxGeometry x="390" y="260" width="100" height="40" as="geometry" />
        </mxCell>
        <mxCell id="vW2DTRvJvBZjn9QqDSF9-74" style="edgeStyle=orthogonalEdgeStyle;curved=1;rounded=0;orthogonalLoop=1;jettySize=auto;html=1;exitX=0.25;exitY=0;exitDx=0;exitDy=0;" edge="1" parent="1" source="vW2DTRvJvBZjn9QqDSF9-17" target="vW2DTRvJvBZjn9QqDSF9-68">
          <mxGeometry relative="1" as="geometry" />
        </mxCell>
        <mxCell id="vW2DTRvJvBZjn9QqDSF9-75" style="edgeStyle=orthogonalEdgeStyle;curved=1;rounded=0;orthogonalLoop=1;jettySize=auto;html=1;exitX=0.5;exitY=0;exitDx=0;exitDy=0;entryX=0.8;entryY=1;entryDx=0;entryDy=0;entryPerimeter=0;" edge="1" parent="1" source="vW2DTRvJvBZjn9QqDSF9-17" target="vW2DTRvJvBZjn9QqDSF9-66">
          <mxGeometry relative="1" as="geometry" />
        </mxCell>
        <mxCell id="vW2DTRvJvBZjn9QqDSF9-17" value="Category" style="whiteSpace=wrap;html=1;align=center;fillColor=#fff2cc;strokeColor=#d6b656;" vertex="1" parent="1">
          <mxGeometry x="1120" y="30" width="100" height="40" as="geometry" />
        </mxCell>
        <mxCell id="vW2DTRvJvBZjn9QqDSF9-63" style="edgeStyle=orthogonalEdgeStyle;curved=1;rounded=0;orthogonalLoop=1;jettySize=auto;html=1;exitX=0.25;exitY=0;exitDx=0;exitDy=0;entryX=0.712;entryY=0.997;entryDx=0;entryDy=0;entryPerimeter=0;" edge="1" parent="1" source="vW2DTRvJvBZjn9QqDSF9-18" target="vW2DTRvJvBZjn9QqDSF9-60">
          <mxGeometry relative="1" as="geometry" />
        </mxCell>
        <mxCell id="vW2DTRvJvBZjn9QqDSF9-64" style="edgeStyle=orthogonalEdgeStyle;curved=1;rounded=0;orthogonalLoop=1;jettySize=auto;html=1;exitX=0.5;exitY=0;exitDx=0;exitDy=0;entryX=0.5;entryY=1;entryDx=0;entryDy=0;" edge="1" parent="1" source="vW2DTRvJvBZjn9QqDSF9-18" target="vW2DTRvJvBZjn9QqDSF9-61">
          <mxGeometry relative="1" as="geometry" />
        </mxCell>
        <mxCell id="vW2DTRvJvBZjn9QqDSF9-65" style="edgeStyle=orthogonalEdgeStyle;curved=1;rounded=0;orthogonalLoop=1;jettySize=auto;html=1;exitX=0.75;exitY=0;exitDx=0;exitDy=0;entryX=0.377;entryY=0.954;entryDx=0;entryDy=0;entryPerimeter=0;" edge="1" parent="1" source="vW2DTRvJvBZjn9QqDSF9-18" target="vW2DTRvJvBZjn9QqDSF9-62">
          <mxGeometry relative="1" as="geometry" />
        </mxCell>
        <mxCell id="vW2DTRvJvBZjn9QqDSF9-73" style="edgeStyle=orthogonalEdgeStyle;curved=1;rounded=0;orthogonalLoop=1;jettySize=auto;html=1;exitX=0.25;exitY=0;exitDx=0;exitDy=0;" edge="1" parent="1" source="vW2DTRvJvBZjn9QqDSF9-18" target="vW2DTRvJvBZjn9QqDSF9-71">
          <mxGeometry relative="1" as="geometry" />
        </mxCell>
        <mxCell id="vW2DTRvJvBZjn9QqDSF9-91" style="edgeStyle=orthogonalEdgeStyle;curved=1;rounded=0;orthogonalLoop=1;jettySize=auto;html=1;exitX=0.75;exitY=0;exitDx=0;exitDy=0;entryX=0.362;entryY=1.009;entryDx=0;entryDy=0;entryPerimeter=0;" edge="1" parent="1" source="vW2DTRvJvBZjn9QqDSF9-18" target="vW2DTRvJvBZjn9QqDSF9-90">
          <mxGeometry relative="1" as="geometry" />
        </mxCell>
        <mxCell id="vW2DTRvJvBZjn9QqDSF9-131" value="N" style="edgeStyle=orthogonalEdgeStyle;curved=1;rounded=0;orthogonalLoop=1;jettySize=auto;html=1;exitX=0;exitY=0.5;exitDx=0;exitDy=0;entryX=1;entryY=0.5;entryDx=0;entryDy=0;strokeWidth=2;fillColor=#ffe6cc;strokeColor=#d79b00;" edge="1" parent="1" source="vW2DTRvJvBZjn9QqDSF9-18" target="vW2DTRvJvBZjn9QqDSF9-130">
          <mxGeometry relative="1" as="geometry" />
        </mxCell>
        <mxCell id="vW2DTRvJvBZjn9QqDSF9-138" value="1" style="edgeStyle=orthogonalEdgeStyle;curved=1;rounded=0;orthogonalLoop=1;jettySize=auto;html=1;exitX=0.25;exitY=1;exitDx=0;exitDy=0;entryX=0.5;entryY=0;entryDx=0;entryDy=0;strokeWidth=2;fillColor=#ffe6cc;strokeColor=#d79b00;" edge="1" parent="1" source="vW2DTRvJvBZjn9QqDSF9-18" target="vW2DTRvJvBZjn9QqDSF9-117">
          <mxGeometry relative="1" as="geometry" />
        </mxCell>
        <mxCell id="vW2DTRvJvBZjn9QqDSF9-18" value="Gears" style="whiteSpace=wrap;html=1;align=center;fillColor=#fff2cc;strokeColor=#d6b656;" vertex="1" parent="1">
          <mxGeometry x="300" y="-320" width="100" height="40" as="geometry" />
        </mxCell>
        <mxCell id="vW2DTRvJvBZjn9QqDSF9-57" style="edgeStyle=orthogonalEdgeStyle;curved=1;rounded=0;orthogonalLoop=1;jettySize=auto;html=1;exitX=0.75;exitY=0;exitDx=0;exitDy=0;entryX=0.247;entryY=1.011;entryDx=0;entryDy=0;entryPerimeter=0;" edge="1" parent="1" source="vW2DTRvJvBZjn9QqDSF9-19" target="vW2DTRvJvBZjn9QqDSF9-51">
          <mxGeometry relative="1" as="geometry" />
        </mxCell>
        <mxCell id="vW2DTRvJvBZjn9QqDSF9-58" style="edgeStyle=orthogonalEdgeStyle;curved=1;rounded=0;orthogonalLoop=1;jettySize=auto;html=1;exitX=0.5;exitY=0;exitDx=0;exitDy=0;entryX=0.5;entryY=1;entryDx=0;entryDy=0;" edge="1" parent="1" source="vW2DTRvJvBZjn9QqDSF9-19" target="vW2DTRvJvBZjn9QqDSF9-50">
          <mxGeometry relative="1" as="geometry" />
        </mxCell>
        <mxCell id="vW2DTRvJvBZjn9QqDSF9-59" style="edgeStyle=orthogonalEdgeStyle;curved=1;rounded=0;orthogonalLoop=1;jettySize=auto;html=1;exitX=0.25;exitY=0;exitDx=0;exitDy=0;entryX=0.647;entryY=1.011;entryDx=0;entryDy=0;entryPerimeter=0;" edge="1" parent="1" source="vW2DTRvJvBZjn9QqDSF9-19" target="vW2DTRvJvBZjn9QqDSF9-52">
          <mxGeometry relative="1" as="geometry" />
        </mxCell>
        <mxCell id="vW2DTRvJvBZjn9QqDSF9-72" style="edgeStyle=orthogonalEdgeStyle;curved=1;rounded=0;orthogonalLoop=1;jettySize=auto;html=1;exitX=0.5;exitY=0;exitDx=0;exitDy=0;entryX=0.563;entryY=1;entryDx=0;entryDy=0;entryPerimeter=0;" edge="1" parent="1" source="vW2DTRvJvBZjn9QqDSF9-19" target="vW2DTRvJvBZjn9QqDSF9-70">
          <mxGeometry relative="1" as="geometry" />
        </mxCell>
        <mxCell id="vW2DTRvJvBZjn9QqDSF9-126" value="1" style="edgeStyle=orthogonalEdgeStyle;curved=1;rounded=0;orthogonalLoop=1;jettySize=auto;html=1;exitX=0.25;exitY=1;exitDx=0;exitDy=0;entryX=0.5;entryY=0;entryDx=0;entryDy=0;strokeWidth=2;fillColor=#ffe6cc;strokeColor=#d79b00;" edge="1" parent="1" source="vW2DTRvJvBZjn9QqDSF9-19" target="vW2DTRvJvBZjn9QqDSF9-119">
          <mxGeometry relative="1" as="geometry" />
        </mxCell>
        <mxCell id="vW2DTRvJvBZjn9QqDSF9-134" value="N" style="edgeStyle=orthogonalEdgeStyle;curved=1;rounded=0;orthogonalLoop=1;jettySize=auto;html=1;exitX=0;exitY=0.5;exitDx=0;exitDy=0;entryX=1;entryY=0.5;entryDx=0;entryDy=0;strokeWidth=2;fillColor=#ffe6cc;strokeColor=#d79b00;" edge="1" parent="1" source="vW2DTRvJvBZjn9QqDSF9-19" target="vW2DTRvJvBZjn9QqDSF9-133">
          <mxGeometry relative="1" as="geometry" />
        </mxCell>
        <mxCell id="vW2DTRvJvBZjn9QqDSF9-141" value="N" style="edgeStyle=orthogonalEdgeStyle;curved=1;rounded=0;orthogonalLoop=1;jettySize=auto;html=1;exitX=0.5;exitY=1;exitDx=0;exitDy=0;strokeWidth=2;fillColor=#ffe6cc;strokeColor=#d79b00;" edge="1" parent="1" source="vW2DTRvJvBZjn9QqDSF9-19" target="vW2DTRvJvBZjn9QqDSF9-86">
          <mxGeometry relative="1" as="geometry" />
        </mxCell>
        <mxCell id="vW2DTRvJvBZjn9QqDSF9-19" value="Brake system" style="whiteSpace=wrap;html=1;align=center;fillColor=#fff2cc;strokeColor=#d6b656;" vertex="1" parent="1">
          <mxGeometry x="610" y="-310" width="100" height="40" as="geometry" />
        </mxCell>
        <mxCell id="vW2DTRvJvBZjn9QqDSF9-20" value="price" style="ellipse;whiteSpace=wrap;html=1;align=center;fillColor=#f5f5f5;strokeColor=#666666;fontColor=#333333;" vertex="1" parent="1">
          <mxGeometry x="530" y="320" width="100" height="40" as="geometry" />
        </mxCell>
        <mxCell id="vW2DTRvJvBZjn9QqDSF9-21" value="front basket" style="ellipse;whiteSpace=wrap;html=1;align=center;fillColor=#f5f5f5;strokeColor=#666666;fontColor=#333333;" vertex="1" parent="1">
          <mxGeometry x="90" y="530" width="100" height="40" as="geometry" />
        </mxCell>
        <mxCell id="vW2DTRvJvBZjn9QqDSF9-22" value="back basket" style="ellipse;whiteSpace=wrap;html=1;align=center;fillColor=#f5f5f5;strokeColor=#666666;fontColor=#333333;" vertex="1" parent="1">
          <mxGeometry x="210" y="470" width="100" height="40" as="geometry" />
        </mxCell>
        <mxCell id="vW2DTRvJvBZjn9QqDSF9-23" value="disk brakes" style="ellipse;whiteSpace=wrap;html=1;align=center;fillColor=#f5f5f5;strokeColor=#666666;fontColor=#333333;" vertex="1" parent="1">
          <mxGeometry x="560" y="530" width="100" height="40" as="geometry" />
        </mxCell>
        <mxCell id="vW2DTRvJvBZjn9QqDSF9-25" value="water bottle" style="ellipse;whiteSpace=wrap;html=1;align=center;fillColor=#f5f5f5;strokeColor=#666666;fontColor=#333333;" vertex="1" parent="1">
          <mxGeometry x="450" y="470" width="100" height="40" as="geometry" />
        </mxCell>
        <mxCell id="vW2DTRvJvBZjn9QqDSF9-26" value="Helmet" style="ellipse;whiteSpace=wrap;html=1;align=center;fillColor=#f5f5f5;strokeColor=#666666;fontColor=#333333;" vertex="1" parent="1">
          <mxGeometry x="320" y="530" width="100" height="40" as="geometry" />
        </mxCell>
        <mxCell id="vW2DTRvJvBZjn9QqDSF9-27" value="Bike lock" style="ellipse;whiteSpace=wrap;html=1;align=center;fillColor=#f5f5f5;strokeColor=#666666;fontColor=#333333;" vertex="1" parent="1">
          <mxGeometry x="200" y="530" width="100" height="40" as="geometry" />
        </mxCell>
        <mxCell id="vW2DTRvJvBZjn9QqDSF9-28" value="light" style="ellipse;whiteSpace=wrap;html=1;align=center;fillColor=#f5f5f5;strokeColor=#666666;fontColor=#333333;" vertex="1" parent="1">
          <mxGeometry x="440" y="530" width="100" height="40" as="geometry" />
        </mxCell>
        <mxCell id="vW2DTRvJvBZjn9QqDSF9-29" value="rain protection" style="ellipse;whiteSpace=wrap;html=1;align=center;fillColor=#f5f5f5;strokeColor=#666666;fontColor=#333333;" vertex="1" parent="1">
          <mxGeometry x="320" y="470" width="100" height="40" as="geometry" />
        </mxCell>
        <mxCell id="vW2DTRvJvBZjn9QqDSF9-50" value="v" style="ellipse;whiteSpace=wrap;html=1;align=center;fillColor=#f5f5f5;strokeColor=#666666;fontColor=#333333;" vertex="1" parent="1">
          <mxGeometry x="610" y="-440" width="100" height="40" as="geometry" />
        </mxCell>
        <mxCell id="vW2DTRvJvBZjn9QqDSF9-51" value="type" style="ellipse;whiteSpace=wrap;html=1;align=center;fillColor=#f5f5f5;strokeColor=#666666;fontColor=#333333;" vertex="1" parent="1">
          <mxGeometry x="730" y="-410" width="100" height="40" as="geometry" />
        </mxCell>
        <mxCell id="vW2DTRvJvBZjn9QqDSF9-52" value="condition" style="ellipse;whiteSpace=wrap;html=1;align=center;fillColor=#f5f5f5;strokeColor=#666666;fontColor=#333333;" vertex="1" parent="1">
          <mxGeometry x="490" y="-410" width="100" height="40" as="geometry" />
        </mxCell>
        <mxCell id="vW2DTRvJvBZjn9QqDSF9-53" value="condition" style="ellipse;whiteSpace=wrap;html=1;align=center;fillColor=#f5f5f5;strokeColor=#666666;fontColor=#333333;" vertex="1" parent="1">
          <mxGeometry x="530" y="260" width="100" height="40" as="geometry" />
        </mxCell>
        <mxCell id="vW2DTRvJvBZjn9QqDSF9-60" value="name" style="ellipse;whiteSpace=wrap;html=1;align=center;fillColor=#f5f5f5;strokeColor=#666666;fontColor=#333333;" vertex="1" parent="1">
          <mxGeometry x="190" y="-430" width="100" height="40" as="geometry" />
        </mxCell>
        <mxCell id="vW2DTRvJvBZjn9QqDSF9-61" value="type" style="ellipse;whiteSpace=wrap;html=1;align=center;fillColor=#f5f5f5;strokeColor=#666666;fontColor=#333333;" vertex="1" parent="1">
          <mxGeometry x="290" y="-480" width="100" height="40" as="geometry" />
        </mxCell>
        <mxCell id="vW2DTRvJvBZjn9QqDSF9-62" value="condition" style="ellipse;whiteSpace=wrap;html=1;align=center;fillColor=#f5f5f5;strokeColor=#666666;fontColor=#333333;" vertex="1" parent="1">
          <mxGeometry x="380" y="-440" width="100" height="40" as="geometry" />
        </mxCell>
        <mxCell id="vW2DTRvJvBZjn9QqDSF9-66" value="name" style="ellipse;whiteSpace=wrap;html=1;align=center;fillColor=#f5f5f5;strokeColor=#666666;fontColor=#333333;" vertex="1" parent="1">
          <mxGeometry x="1180" y="-60" width="100" height="40" as="geometry" />
        </mxCell>
        <mxCell id="vW2DTRvJvBZjn9QqDSF9-68" value="id" style="ellipse;whiteSpace=wrap;html=1;align=center;fontStyle=4;fillColor=#f5f5f5;strokeColor=#666666;fontColor=#333333;" vertex="1" parent="1">
          <mxGeometry x="1030" y="-60" width="100" height="40" as="geometry" />
        </mxCell>
        <mxCell id="vW2DTRvJvBZjn9QqDSF9-70" value="id" style="ellipse;whiteSpace=wrap;html=1;align=center;fontStyle=4;fillColor=#f5f5f5;strokeColor=#666666;fontColor=#333333;" vertex="1" parent="1">
          <mxGeometry x="510" y="-490" width="100" height="40" as="geometry" />
        </mxCell>
        <mxCell id="vW2DTRvJvBZjn9QqDSF9-71" value="id" style="ellipse;whiteSpace=wrap;html=1;align=center;fontStyle=4;fillColor=#f5f5f5;strokeColor=#666666;fontColor=#333333;" vertex="1" parent="1">
          <mxGeometry x="180" y="-490" width="100" height="40" as="geometry" />
        </mxCell>
        <mxCell id="vW2DTRvJvBZjn9QqDSF9-76" value="location" style="ellipse;whiteSpace=wrap;html=1;align=center;fillColor=#f5f5f5;strokeColor=#666666;fontColor=#333333;" vertex="1" parent="1">
          <mxGeometry x="-250" y="-480" width="100" height="40" as="geometry" />
        </mxCell>
        <mxCell id="vW2DTRvJvBZjn9QqDSF9-77" value="id" style="ellipse;whiteSpace=wrap;html=1;align=center;fontStyle=4;fillColor=#f5f5f5;strokeColor=#666666;fontColor=#333333;" vertex="1" parent="1">
          <mxGeometry x="-100" y="-480" width="100" height="40" as="geometry" />
        </mxCell>
        <mxCell id="vW2DTRvJvBZjn9QqDSF9-84" style="edgeStyle=orthogonalEdgeStyle;curved=1;rounded=0;orthogonalLoop=1;jettySize=auto;html=1;exitX=0.75;exitY=1;exitDx=0;exitDy=0;entryX=0;entryY=1;entryDx=0;entryDy=0;" edge="1" parent="1" source="vW2DTRvJvBZjn9QqDSF9-80" target="vW2DTRvJvBZjn9QqDSF9-82">
          <mxGeometry relative="1" as="geometry">
            <Array as="points">
              <mxPoint x="840" y="-30" />
              <mxPoint x="910" y="-30" />
            </Array>
          </mxGeometry>
        </mxCell>
        <mxCell id="vW2DTRvJvBZjn9QqDSF9-129" style="edgeStyle=orthogonalEdgeStyle;curved=1;rounded=0;orthogonalLoop=1;jettySize=auto;html=1;exitX=0.75;exitY=0;exitDx=0;exitDy=0;" edge="1" parent="1" source="vW2DTRvJvBZjn9QqDSF9-80" target="vW2DTRvJvBZjn9QqDSF9-81">
          <mxGeometry relative="1" as="geometry" />
        </mxCell>
        <mxCell id="vW2DTRvJvBZjn9QqDSF9-80" value="Brand" style="whiteSpace=wrap;html=1;align=center;fillColor=#fff2cc;strokeColor=#d6b656;" vertex="1" parent="1">
          <mxGeometry x="765" y="-90" width="100" height="40" as="geometry" />
        </mxCell>
        <mxCell id="vW2DTRvJvBZjn9QqDSF9-81" value="name" style="ellipse;whiteSpace=wrap;html=1;align=center;fillColor=#f5f5f5;strokeColor=#666666;fontColor=#333333;" vertex="1" parent="1">
          <mxGeometry x="945" y="-130" width="100" height="40" as="geometry" />
        </mxCell>
        <mxCell id="vW2DTRvJvBZjn9QqDSF9-82" value="id" style="ellipse;whiteSpace=wrap;html=1;align=center;fontStyle=4;fillColor=#f5f5f5;strokeColor=#666666;fontColor=#333333;" vertex="1" parent="1">
          <mxGeometry x="895" y="-60" width="100" height="40" as="geometry" />
        </mxCell>
        <mxCell id="vW2DTRvJvBZjn9QqDSF9-143" value="1" style="edgeStyle=orthogonalEdgeStyle;curved=1;rounded=0;orthogonalLoop=1;jettySize=auto;html=1;exitX=0.5;exitY=1;exitDx=0;exitDy=0;entryX=0;entryY=0.5;entryDx=0;entryDy=0;strokeWidth=2;fillColor=#ffe6cc;strokeColor=#d79b00;" edge="1" parent="1" source="vW2DTRvJvBZjn9QqDSF9-85" target="vW2DTRvJvBZjn9QqDSF9-80">
          <mxGeometry relative="1" as="geometry" />
        </mxCell>
        <mxCell id="vW2DTRvJvBZjn9QqDSF9-85" value="has" style="shape=rhombus;perimeter=rhombusPerimeter;whiteSpace=wrap;html=1;align=center;fillColor=#ffe6cc;strokeColor=#d79b00;" vertex="1" parent="1">
          <mxGeometry x="290" y="-230" width="120" height="60" as="geometry" />
        </mxCell>
        <mxCell id="vW2DTRvJvBZjn9QqDSF9-142" value="1" style="edgeStyle=orthogonalEdgeStyle;curved=1;rounded=0;orthogonalLoop=1;jettySize=auto;html=1;exitX=0.5;exitY=1;exitDx=0;exitDy=0;entryX=0.5;entryY=0;entryDx=0;entryDy=0;strokeWidth=2;fillColor=#ffe6cc;strokeColor=#d79b00;" edge="1" parent="1" source="vW2DTRvJvBZjn9QqDSF9-86" target="vW2DTRvJvBZjn9QqDSF9-80">
          <mxGeometry relative="1" as="geometry" />
        </mxCell>
        <mxCell id="vW2DTRvJvBZjn9QqDSF9-86" value="has" style="shape=rhombus;perimeter=rhombusPerimeter;whiteSpace=wrap;html=1;align=center;fillColor=#ffe6cc;strokeColor=#d79b00;" vertex="1" parent="1">
          <mxGeometry x="745" y="-230" width="120" height="60" as="geometry" />
        </mxCell>
        <mxCell id="vW2DTRvJvBZjn9QqDSF9-163" value="N" style="edgeStyle=orthogonalEdgeStyle;curved=1;rounded=0;orthogonalLoop=1;jettySize=auto;html=1;exitX=0.5;exitY=0;exitDx=0;exitDy=0;entryX=0.5;entryY=1;entryDx=0;entryDy=0;strokeWidth=2;fillColor=#ffe6cc;strokeColor=#d79b00;" edge="1" parent="1" source="vW2DTRvJvBZjn9QqDSF9-87" target="vW2DTRvJvBZjn9QqDSF9-17">
          <mxGeometry relative="1" as="geometry" />
        </mxCell>
        <mxCell id="vW2DTRvJvBZjn9QqDSF9-87" value="has" style="shape=rhombus;perimeter=rhombusPerimeter;whiteSpace=wrap;html=1;align=center;fillColor=#ffe6cc;strokeColor=#d79b00;" vertex="1" parent="1">
          <mxGeometry x="1120" y="130" width="120" height="60" as="geometry" />
        </mxCell>
        <mxCell id="vW2DTRvJvBZjn9QqDSF9-88" value="has" style="shape=rhombus;perimeter=rhombusPerimeter;whiteSpace=wrap;html=1;align=center;fillColor=#ffe6cc;strokeColor=#d79b00;" vertex="1" parent="1">
          <mxGeometry x="-160" y="-130" width="120" height="60" as="geometry" />
        </mxCell>
        <mxCell id="vW2DTRvJvBZjn9QqDSF9-140" value="1" style="edgeStyle=orthogonalEdgeStyle;curved=1;rounded=0;orthogonalLoop=1;jettySize=auto;html=1;exitX=0.5;exitY=0;exitDx=0;exitDy=0;entryX=0.5;entryY=1;entryDx=0;entryDy=0;strokeWidth=2;fillColor=#ffe6cc;strokeColor=#d79b00;" edge="1" parent="1" source="vW2DTRvJvBZjn9QqDSF9-89" target="vW2DTRvJvBZjn9QqDSF9-80">
          <mxGeometry relative="1" as="geometry" />
        </mxCell>
        <mxCell id="vW2DTRvJvBZjn9QqDSF9-89" value="has" style="shape=rhombus;perimeter=rhombusPerimeter;whiteSpace=wrap;html=1;align=center;fillColor=#ffe6cc;strokeColor=#d79b00;" vertex="1" parent="1">
          <mxGeometry x="760" y="50" width="120" height="60" as="geometry" />
        </mxCell>
        <mxCell id="vW2DTRvJvBZjn9QqDSF9-90" value="nr of gears" style="ellipse;whiteSpace=wrap;html=1;align=center;fillColor=#f5f5f5;strokeColor=#666666;fontColor=#333333;" vertex="1" parent="1">
          <mxGeometry x="380" y="-540" width="100" height="40" as="geometry" />
        </mxCell>
        <mxCell id="vW2DTRvJvBZjn9QqDSF9-96" value="N" style="endArrow=none;html=1;rounded=0;entryX=0.5;entryY=0;entryDx=0;entryDy=0;strokeWidth=2;fillColor=#ffe6cc;strokeColor=#d79b00;" edge="1" parent="1" target="vW2DTRvJvBZjn9QqDSF9-85">
          <mxGeometry relative="1" as="geometry">
            <mxPoint x="350" y="-280" as="sourcePoint" />
            <mxPoint x="510" y="-280" as="targetPoint" />
          </mxGeometry>
        </mxCell>
        <mxCell id="vW2DTRvJvBZjn9QqDSF9-117" value="has" style="shape=rhombus;perimeter=rhombusPerimeter;whiteSpace=wrap;html=1;align=center;fillColor=#ffe6cc;strokeColor=#d79b00;" vertex="1" parent="1">
          <mxGeometry x="140" y="-130" width="120" height="60" as="geometry" />
        </mxCell>
        <mxCell id="vW2DTRvJvBZjn9QqDSF9-119" value="has" style="shape=rhombus;perimeter=rhombusPerimeter;whiteSpace=wrap;html=1;align=center;fillColor=#ffe6cc;strokeColor=#d79b00;" vertex="1" parent="1">
          <mxGeometry x="470" y="-60" width="120" height="60" as="geometry" />
        </mxCell>
        <mxCell id="vW2DTRvJvBZjn9QqDSF9-132" value="1" style="edgeStyle=orthogonalEdgeStyle;curved=1;rounded=0;orthogonalLoop=1;jettySize=auto;html=1;exitX=0;exitY=0.5;exitDx=0;exitDy=0;entryX=1;entryY=0.5;entryDx=0;entryDy=0;strokeWidth=2;fillColor=#ffe6cc;strokeColor=#d79b00;" edge="1" parent="1" source="vW2DTRvJvBZjn9QqDSF9-130" target="vW2DTRvJvBZjn9QqDSF9-15">
          <mxGeometry relative="1" as="geometry" />
        </mxCell>
        <mxCell id="vW2DTRvJvBZjn9QqDSF9-130" value="has" style="shape=rhombus;perimeter=rhombusPerimeter;whiteSpace=wrap;html=1;align=center;fillColor=#ffe6cc;strokeColor=#d79b00;" vertex="1" parent="1">
          <mxGeometry x="60" y="-390" width="120" height="60" as="geometry" />
        </mxCell>
        <mxCell id="vW2DTRvJvBZjn9QqDSF9-135" value="1" style="edgeStyle=orthogonalEdgeStyle;curved=1;rounded=0;orthogonalLoop=1;jettySize=auto;html=1;exitX=0;exitY=0.5;exitDx=0;exitDy=0;entryX=1;entryY=0.75;entryDx=0;entryDy=0;strokeWidth=2;fillColor=#ffe6cc;strokeColor=#d79b00;" edge="1" parent="1" source="vW2DTRvJvBZjn9QqDSF9-133" target="vW2DTRvJvBZjn9QqDSF9-15">
          <mxGeometry relative="1" as="geometry">
            <Array as="points">
              <mxPoint x="150" y="-250" />
              <mxPoint x="150" y="-320" />
              <mxPoint x="-70" y="-320" />
            </Array>
          </mxGeometry>
        </mxCell>
        <mxCell id="vW2DTRvJvBZjn9QqDSF9-133" value="has" style="shape=rhombus;perimeter=rhombusPerimeter;whiteSpace=wrap;html=1;align=center;fillColor=#ffe6cc;strokeColor=#d79b00;" vertex="1" parent="1">
          <mxGeometry x="440" y="-280" width="120" height="60" as="geometry" />
        </mxCell>
        <mxCell id="vW2DTRvJvBZjn9QqDSF9-181" style="edgeStyle=orthogonalEdgeStyle;curved=1;rounded=0;orthogonalLoop=1;jettySize=auto;html=1;exitX=0.5;exitY=1;exitDx=0;exitDy=0;entryX=0.5;entryY=0;entryDx=0;entryDy=0;strokeWidth=1;" edge="1" parent="1" source="vW2DTRvJvBZjn9QqDSF9-164" target="vW2DTRvJvBZjn9QqDSF9-171">
          <mxGeometry relative="1" as="geometry" />
        </mxCell>
        <mxCell id="vW2DTRvJvBZjn9QqDSF9-182" style="edgeStyle=orthogonalEdgeStyle;curved=1;rounded=0;orthogonalLoop=1;jettySize=auto;html=1;exitX=0.5;exitY=1;exitDx=0;exitDy=0;entryX=0.5;entryY=0;entryDx=0;entryDy=0;strokeWidth=1;" edge="1" parent="1" source="vW2DTRvJvBZjn9QqDSF9-164" target="vW2DTRvJvBZjn9QqDSF9-175">
          <mxGeometry relative="1" as="geometry" />
        </mxCell>
        <mxCell id="vW2DTRvJvBZjn9QqDSF9-183" style="edgeStyle=orthogonalEdgeStyle;curved=1;rounded=0;orthogonalLoop=1;jettySize=auto;html=1;exitX=0.5;exitY=1;exitDx=0;exitDy=0;strokeWidth=1;" edge="1" parent="1" source="vW2DTRvJvBZjn9QqDSF9-164" target="vW2DTRvJvBZjn9QqDSF9-174">
          <mxGeometry relative="1" as="geometry" />
        </mxCell>
        <mxCell id="vW2DTRvJvBZjn9QqDSF9-184" style="edgeStyle=orthogonalEdgeStyle;curved=1;rounded=0;orthogonalLoop=1;jettySize=auto;html=1;exitX=0.5;exitY=1;exitDx=0;exitDy=0;entryX=0.5;entryY=0;entryDx=0;entryDy=0;strokeWidth=1;" edge="1" parent="1" source="vW2DTRvJvBZjn9QqDSF9-164" target="vW2DTRvJvBZjn9QqDSF9-177">
          <mxGeometry relative="1" as="geometry" />
        </mxCell>
        <mxCell id="vW2DTRvJvBZjn9QqDSF9-185" style="edgeStyle=orthogonalEdgeStyle;curved=1;rounded=0;orthogonalLoop=1;jettySize=auto;html=1;exitX=0.5;exitY=1;exitDx=0;exitDy=0;entryX=0.5;entryY=0;entryDx=0;entryDy=0;strokeWidth=1;" edge="1" parent="1" source="vW2DTRvJvBZjn9QqDSF9-164" target="vW2DTRvJvBZjn9QqDSF9-178">
          <mxGeometry relative="1" as="geometry" />
        </mxCell>
        <mxCell id="vW2DTRvJvBZjn9QqDSF9-186" style="edgeStyle=orthogonalEdgeStyle;curved=1;rounded=0;orthogonalLoop=1;jettySize=auto;html=1;exitX=0.5;exitY=1;exitDx=0;exitDy=0;strokeWidth=1;" edge="1" parent="1" source="vW2DTRvJvBZjn9QqDSF9-164" target="vW2DTRvJvBZjn9QqDSF9-176">
          <mxGeometry relative="1" as="geometry" />
        </mxCell>
        <mxCell id="vW2DTRvJvBZjn9QqDSF9-187" style="edgeStyle=orthogonalEdgeStyle;curved=1;rounded=0;orthogonalLoop=1;jettySize=auto;html=1;exitX=0.5;exitY=1;exitDx=0;exitDy=0;entryX=0.5;entryY=0;entryDx=0;entryDy=0;strokeWidth=1;" edge="1" parent="1" source="vW2DTRvJvBZjn9QqDSF9-164" target="vW2DTRvJvBZjn9QqDSF9-165">
          <mxGeometry relative="1" as="geometry" />
        </mxCell>
        <mxCell id="vW2DTRvJvBZjn9QqDSF9-196" value="1" style="edgeStyle=orthogonalEdgeStyle;curved=1;rounded=0;orthogonalLoop=1;jettySize=auto;html=1;exitX=1;exitY=0.5;exitDx=0;exitDy=0;entryX=0;entryY=0.5;entryDx=0;entryDy=0;strokeWidth=2;fillColor=#d5e8d4;strokeColor=#82b366;" edge="1" parent="1" source="vW2DTRvJvBZjn9QqDSF9-164" target="vW2DTRvJvBZjn9QqDSF9-195">
          <mxGeometry x="0.0323" relative="1" as="geometry">
            <mxPoint as="offset" />
          </mxGeometry>
        </mxCell>
        <mxCell id="vW2DTRvJvBZjn9QqDSF9-164" value="&lt;font style=&quot;font-size: 18px&quot;&gt;User&lt;/font&gt;" style="whiteSpace=wrap;html=1;align=center;fillColor=#dae8fc;strokeColor=#6c8ebf;" vertex="1" parent="1">
          <mxGeometry x="-490" y="170" width="100" height="40" as="geometry" />
        </mxCell>
        <mxCell id="vW2DTRvJvBZjn9QqDSF9-165" value="email" style="ellipse;whiteSpace=wrap;html=1;align=center;fillColor=#f9f7ed;strokeColor=#36393d;" vertex="1" parent="1">
          <mxGeometry x="-700" y="380" width="100" height="40" as="geometry" />
        </mxCell>
        <mxCell id="vW2DTRvJvBZjn9QqDSF9-166" value="country" style="ellipse;whiteSpace=wrap;html=1;align=center;fillColor=#f9f7ed;strokeColor=#36393d;" vertex="1" parent="1">
          <mxGeometry x="-380" y="360" width="100" height="40" as="geometry" />
        </mxCell>
        <mxCell id="vW2DTRvJvBZjn9QqDSF9-167" value="city" style="ellipse;whiteSpace=wrap;html=1;align=center;fillColor=#f9f7ed;strokeColor=#36393d;" vertex="1" parent="1">
          <mxGeometry x="-540" y="370" width="100" height="40" as="geometry" />
        </mxCell>
        <mxCell id="vW2DTRvJvBZjn9QqDSF9-168" value="zip code" style="ellipse;whiteSpace=wrap;html=1;align=center;fillColor=#f9f7ed;strokeColor=#36393d;" vertex="1" parent="1">
          <mxGeometry x="-320" y="320" width="100" height="40" as="geometry" />
        </mxCell>
        <mxCell id="vW2DTRvJvBZjn9QqDSF9-169" value="nr" style="ellipse;whiteSpace=wrap;html=1;align=center;fillColor=#f9f7ed;strokeColor=#36393d;" vertex="1" parent="1">
          <mxGeometry x="-460" y="320" width="100" height="40" as="geometry" />
        </mxCell>
        <mxCell id="vW2DTRvJvBZjn9QqDSF9-170" value="street" style="ellipse;whiteSpace=wrap;html=1;align=center;fillColor=#f9f7ed;strokeColor=#36393d;" vertex="1" parent="1">
          <mxGeometry x="-610" y="320" width="100" height="40" as="geometry" />
        </mxCell>
        <mxCell id="vW2DTRvJvBZjn9QqDSF9-188" style="edgeStyle=orthogonalEdgeStyle;curved=1;rounded=0;orthogonalLoop=1;jettySize=auto;html=1;exitX=0.5;exitY=1;exitDx=0;exitDy=0;entryX=0.5;entryY=0;entryDx=0;entryDy=0;strokeWidth=1;fillColor=#f9f7ed;strokeColor=#36393d;" edge="1" parent="1" source="vW2DTRvJvBZjn9QqDSF9-171" target="vW2DTRvJvBZjn9QqDSF9-170">
          <mxGeometry relative="1" as="geometry" />
        </mxCell>
        <mxCell id="vW2DTRvJvBZjn9QqDSF9-189" style="edgeStyle=orthogonalEdgeStyle;curved=1;rounded=0;orthogonalLoop=1;jettySize=auto;html=1;exitX=0.5;exitY=1;exitDx=0;exitDy=0;strokeWidth=1;entryX=0.5;entryY=0;entryDx=0;entryDy=0;fillColor=#f9f7ed;strokeColor=#36393d;" edge="1" parent="1" source="vW2DTRvJvBZjn9QqDSF9-171" target="vW2DTRvJvBZjn9QqDSF9-167">
          <mxGeometry relative="1" as="geometry">
            <mxPoint x="-480" y="320" as="targetPoint" />
          </mxGeometry>
        </mxCell>
        <mxCell id="vW2DTRvJvBZjn9QqDSF9-190" style="edgeStyle=orthogonalEdgeStyle;curved=1;rounded=0;orthogonalLoop=1;jettySize=auto;html=1;exitX=0.5;exitY=1;exitDx=0;exitDy=0;entryX=0.5;entryY=0;entryDx=0;entryDy=0;strokeWidth=1;fillColor=#f9f7ed;strokeColor=#36393d;" edge="1" parent="1" source="vW2DTRvJvBZjn9QqDSF9-171" target="vW2DTRvJvBZjn9QqDSF9-169">
          <mxGeometry relative="1" as="geometry" />
        </mxCell>
        <mxCell id="vW2DTRvJvBZjn9QqDSF9-191" style="edgeStyle=orthogonalEdgeStyle;curved=1;rounded=0;orthogonalLoop=1;jettySize=auto;html=1;exitX=0.5;exitY=1;exitDx=0;exitDy=0;entryX=0.5;entryY=0;entryDx=0;entryDy=0;strokeWidth=1;fillColor=#f9f7ed;strokeColor=#36393d;" edge="1" parent="1" source="vW2DTRvJvBZjn9QqDSF9-171" target="vW2DTRvJvBZjn9QqDSF9-166">
          <mxGeometry relative="1" as="geometry" />
        </mxCell>
        <mxCell id="vW2DTRvJvBZjn9QqDSF9-192" style="edgeStyle=orthogonalEdgeStyle;curved=1;rounded=0;orthogonalLoop=1;jettySize=auto;html=1;exitX=0.5;exitY=1;exitDx=0;exitDy=0;entryX=0.5;entryY=0;entryDx=0;entryDy=0;strokeWidth=1;fillColor=#f9f7ed;strokeColor=#36393d;" edge="1" parent="1" source="vW2DTRvJvBZjn9QqDSF9-171" target="vW2DTRvJvBZjn9QqDSF9-168">
          <mxGeometry relative="1" as="geometry" />
        </mxCell>
        <mxCell id="vW2DTRvJvBZjn9QqDSF9-171" value="address" style="ellipse;whiteSpace=wrap;html=1;align=center;fillColor=#f9f7ed;strokeColor=#36393d;" vertex="1" parent="1">
          <mxGeometry x="-500" y="240" width="100" height="40" as="geometry" />
        </mxCell>
        <mxCell id="vW2DTRvJvBZjn9QqDSF9-172" value="last name" style="ellipse;whiteSpace=wrap;html=1;align=center;fillColor=#f9f7ed;strokeColor=#36393d;" vertex="1" parent="1">
          <mxGeometry x="-770" y="310" width="100" height="40" as="geometry" />
        </mxCell>
        <mxCell id="vW2DTRvJvBZjn9QqDSF9-173" value="first name" style="ellipse;whiteSpace=wrap;html=1;align=center;fillColor=#f9f7ed;strokeColor=#36393d;" vertex="1" parent="1">
          <mxGeometry x="-910" y="310" width="100" height="40" as="geometry" />
        </mxCell>
        <mxCell id="vW2DTRvJvBZjn9QqDSF9-193" style="edgeStyle=orthogonalEdgeStyle;curved=1;rounded=0;orthogonalLoop=1;jettySize=auto;html=1;exitX=0.5;exitY=1;exitDx=0;exitDy=0;entryX=0.5;entryY=0;entryDx=0;entryDy=0;strokeWidth=1;fillColor=#f9f7ed;strokeColor=#36393d;" edge="1" parent="1" source="vW2DTRvJvBZjn9QqDSF9-174" target="vW2DTRvJvBZjn9QqDSF9-172">
          <mxGeometry relative="1" as="geometry" />
        </mxCell>
        <mxCell id="vW2DTRvJvBZjn9QqDSF9-194" style="edgeStyle=orthogonalEdgeStyle;curved=1;rounded=0;orthogonalLoop=1;jettySize=auto;html=1;exitX=0.5;exitY=1;exitDx=0;exitDy=0;entryX=0.5;entryY=0;entryDx=0;entryDy=0;strokeWidth=1;fillColor=#f9f7ed;strokeColor=#36393d;" edge="1" parent="1" source="vW2DTRvJvBZjn9QqDSF9-174" target="vW2DTRvJvBZjn9QqDSF9-173">
          <mxGeometry relative="1" as="geometry" />
        </mxCell>
        <mxCell id="vW2DTRvJvBZjn9QqDSF9-174" value="name" style="ellipse;whiteSpace=wrap;html=1;align=center;fillColor=#f9f7ed;strokeColor=#36393d;" vertex="1" parent="1">
          <mxGeometry x="-830" y="240" width="100" height="40" as="geometry" />
        </mxCell>
        <mxCell id="vW2DTRvJvBZjn9QqDSF9-175" value="id" style="ellipse;whiteSpace=wrap;html=1;align=center;fontStyle=4;fillColor=#f9f7ed;strokeColor=#36393d;" vertex="1" parent="1">
          <mxGeometry x="-670" y="240" width="100" height="40" as="geometry" />
        </mxCell>
        <mxCell id="vW2DTRvJvBZjn9QqDSF9-176" value="phone nr" style="ellipse;whiteSpace=wrap;html=1;align=center;fillColor=#f9f7ed;strokeColor=#36393d;" vertex="1" parent="1">
          <mxGeometry x="-330" y="240" width="100" height="40" as="geometry" />
        </mxCell>
        <mxCell id="vW2DTRvJvBZjn9QqDSF9-177" value="birthday" style="ellipse;whiteSpace=wrap;html=1;align=center;fillColor=#f9f7ed;strokeColor=#36393d;" vertex="1" parent="1">
          <mxGeometry x="-980" y="240" width="100" height="40" as="geometry" />
        </mxCell>
        <mxCell id="vW2DTRvJvBZjn9QqDSF9-178" value="status" style="ellipse;whiteSpace=wrap;html=1;align=center;fillColor=#f9f7ed;strokeColor=#36393d;" vertex="1" parent="1">
          <mxGeometry x="-1120" y="240" width="100" height="40" as="geometry" />
        </mxCell>
        <mxCell id="vW2DTRvJvBZjn9QqDSF9-179" value="stock" style="ellipse;whiteSpace=wrap;html=1;align=center;fillColor=#f5f5f5;strokeColor=#666666;fontColor=#333333;" vertex="1" parent="1">
          <mxGeometry y="260" width="100" height="40" as="geometry" />
        </mxCell>
        <mxCell id="vW2DTRvJvBZjn9QqDSF9-197" value="N" style="edgeStyle=orthogonalEdgeStyle;curved=1;rounded=0;orthogonalLoop=1;jettySize=auto;html=1;exitX=1;exitY=0.5;exitDx=0;exitDy=0;entryX=0.5;entryY=0;entryDx=0;entryDy=0;strokeWidth=2;fillColor=#d5e8d4;strokeColor=#82b366;" edge="1" parent="1" source="vW2DTRvJvBZjn9QqDSF9-195" target="vW2DTRvJvBZjn9QqDSF9-274">
          <mxGeometry x="-0.2941" y="-40" relative="1" as="geometry">
            <mxPoint as="offset" />
          </mxGeometry>
        </mxCell>
        <mxCell id="vW2DTRvJvBZjn9QqDSF9-195" value="Buy" style="shape=rhombus;perimeter=rhombusPerimeter;whiteSpace=wrap;html=1;align=center;fillColor=#d5e8d4;strokeColor=#82b366;" vertex="1" parent="1">
          <mxGeometry x="-320" y="160" width="120" height="60" as="geometry" />
        </mxCell>
        <mxCell id="vW2DTRvJvBZjn9QqDSF9-212" style="edgeStyle=orthogonalEdgeStyle;curved=1;rounded=0;orthogonalLoop=1;jettySize=auto;html=1;exitX=0.5;exitY=0;exitDx=0;exitDy=0;entryX=0.5;entryY=1;entryDx=0;entryDy=0;strokeWidth=1;" edge="1" parent="1" source="vW2DTRvJvBZjn9QqDSF9-198" target="vW2DTRvJvBZjn9QqDSF9-200">
          <mxGeometry relative="1" as="geometry" />
        </mxCell>
        <mxCell id="vW2DTRvJvBZjn9QqDSF9-213" style="edgeStyle=orthogonalEdgeStyle;curved=1;rounded=0;orthogonalLoop=1;jettySize=auto;html=1;exitX=0.5;exitY=0;exitDx=0;exitDy=0;entryX=0.5;entryY=1;entryDx=0;entryDy=0;strokeWidth=1;" edge="1" parent="1" source="vW2DTRvJvBZjn9QqDSF9-198" target="vW2DTRvJvBZjn9QqDSF9-208">
          <mxGeometry relative="1" as="geometry" />
        </mxCell>
        <mxCell id="vW2DTRvJvBZjn9QqDSF9-214" style="edgeStyle=orthogonalEdgeStyle;curved=1;rounded=0;orthogonalLoop=1;jettySize=auto;html=1;exitX=0.5;exitY=0;exitDx=0;exitDy=0;entryX=0.5;entryY=1;entryDx=0;entryDy=0;strokeWidth=1;" edge="1" parent="1" source="vW2DTRvJvBZjn9QqDSF9-198" target="vW2DTRvJvBZjn9QqDSF9-199">
          <mxGeometry relative="1" as="geometry" />
        </mxCell>
        <mxCell id="vW2DTRvJvBZjn9QqDSF9-215" style="edgeStyle=orthogonalEdgeStyle;curved=1;rounded=0;orthogonalLoop=1;jettySize=auto;html=1;exitX=0.5;exitY=0;exitDx=0;exitDy=0;entryX=0.5;entryY=1;entryDx=0;entryDy=0;strokeWidth=1;" edge="1" parent="1" source="vW2DTRvJvBZjn9QqDSF9-198" target="vW2DTRvJvBZjn9QqDSF9-205">
          <mxGeometry relative="1" as="geometry" />
        </mxCell>
        <mxCell id="vW2DTRvJvBZjn9QqDSF9-216" style="edgeStyle=orthogonalEdgeStyle;curved=1;rounded=0;orthogonalLoop=1;jettySize=auto;html=1;exitX=0.5;exitY=0;exitDx=0;exitDy=0;entryX=0.5;entryY=1;entryDx=0;entryDy=0;strokeWidth=1;" edge="1" parent="1" source="vW2DTRvJvBZjn9QqDSF9-198" target="vW2DTRvJvBZjn9QqDSF9-201">
          <mxGeometry relative="1" as="geometry" />
        </mxCell>
        <mxCell id="vW2DTRvJvBZjn9QqDSF9-217" style="edgeStyle=orthogonalEdgeStyle;curved=1;rounded=0;orthogonalLoop=1;jettySize=auto;html=1;exitX=0.5;exitY=0;exitDx=0;exitDy=0;entryX=0.5;entryY=1;entryDx=0;entryDy=0;strokeWidth=1;" edge="1" parent="1" source="vW2DTRvJvBZjn9QqDSF9-198" target="vW2DTRvJvBZjn9QqDSF9-203">
          <mxGeometry relative="1" as="geometry" />
        </mxCell>
        <mxCell id="vW2DTRvJvBZjn9QqDSF9-218" style="edgeStyle=orthogonalEdgeStyle;curved=1;rounded=0;orthogonalLoop=1;jettySize=auto;html=1;exitX=0.5;exitY=0;exitDx=0;exitDy=0;entryX=0.5;entryY=1;entryDx=0;entryDy=0;strokeWidth=1;" edge="1" parent="1" source="vW2DTRvJvBZjn9QqDSF9-198" target="vW2DTRvJvBZjn9QqDSF9-202">
          <mxGeometry relative="1" as="geometry" />
        </mxCell>
        <mxCell id="vW2DTRvJvBZjn9QqDSF9-225" style="edgeStyle=orthogonalEdgeStyle;curved=1;rounded=0;orthogonalLoop=1;jettySize=auto;html=1;exitX=0.5;exitY=0;exitDx=0;exitDy=0;entryX=0.5;entryY=1;entryDx=0;entryDy=0;strokeWidth=1;" edge="1" parent="1" source="vW2DTRvJvBZjn9QqDSF9-198" target="vW2DTRvJvBZjn9QqDSF9-224">
          <mxGeometry relative="1" as="geometry" />
        </mxCell>
        <mxCell id="vW2DTRvJvBZjn9QqDSF9-228" value="M" style="edgeStyle=orthogonalEdgeStyle;curved=1;rounded=0;orthogonalLoop=1;jettySize=auto;html=1;exitX=1;exitY=0.5;exitDx=0;exitDy=0;entryX=0;entryY=0.5;entryDx=0;entryDy=0;strokeWidth=2;fillColor=#ffe6cc;strokeColor=#d79b00;" edge="1" parent="1" source="vW2DTRvJvBZjn9QqDSF9-198" target="vW2DTRvJvBZjn9QqDSF9-221">
          <mxGeometry relative="1" as="geometry" />
        </mxCell>
        <mxCell id="vW2DTRvJvBZjn9QqDSF9-198" value="&lt;font style=&quot;font-size: 18px&quot;&gt;Post&lt;/font&gt;" style="whiteSpace=wrap;html=1;align=center;fillColor=#dae8fc;strokeColor=#6c8ebf;" vertex="1" parent="1">
          <mxGeometry x="-490" y="-400" width="100" height="40" as="geometry" />
        </mxCell>
        <mxCell id="vW2DTRvJvBZjn9QqDSF9-199" value="id" style="ellipse;whiteSpace=wrap;html=1;align=center;fontStyle=4;fillColor=#f5f5f5;strokeColor=#666666;fontColor=#333333;" vertex="1" parent="1">
          <mxGeometry x="-560" y="-485" width="100" height="40" as="geometry" />
        </mxCell>
        <mxCell id="vW2DTRvJvBZjn9QqDSF9-200" value="bike ref" style="ellipse;whiteSpace=wrap;html=1;align=center;fillColor=#f5f5f5;strokeColor=#666666;fontColor=#333333;" vertex="1" parent="1">
          <mxGeometry x="-420" y="-485" width="100" height="40" as="geometry" />
        </mxCell>
        <mxCell id="vW2DTRvJvBZjn9QqDSF9-201" value="status" style="ellipse;whiteSpace=wrap;html=1;align=center;fillColor=#f5f5f5;strokeColor=#666666;fontColor=#333333;" vertex="1" parent="1">
          <mxGeometry x="-560" y="-595" width="100" height="40" as="geometry" />
        </mxCell>
        <mxCell id="vW2DTRvJvBZjn9QqDSF9-202" value="unpost date" style="ellipse;whiteSpace=wrap;html=1;align=center;fillColor=#f5f5f5;strokeColor=#666666;fontColor=#333333;" vertex="1" parent="1">
          <mxGeometry x="-700" y="-545" width="100" height="40" as="geometry" />
        </mxCell>
        <mxCell id="vW2DTRvJvBZjn9QqDSF9-203" value="post date" style="ellipse;whiteSpace=wrap;html=1;align=center;fillColor=#f5f5f5;strokeColor=#666666;fontColor=#333333;" vertex="1" parent="1">
          <mxGeometry x="-700" y="-485" width="100" height="40" as="geometry" />
        </mxCell>
        <mxCell id="vW2DTRvJvBZjn9QqDSF9-205" value="teaser" style="ellipse;whiteSpace=wrap;html=1;align=center;fillColor=#f5f5f5;strokeColor=#666666;fontColor=#333333;" vertex="1" parent="1">
          <mxGeometry x="-560" y="-545" width="100" height="40" as="geometry" />
        </mxCell>
        <mxCell id="vW2DTRvJvBZjn9QqDSF9-220" style="edgeStyle=orthogonalEdgeStyle;curved=1;rounded=0;orthogonalLoop=1;jettySize=auto;html=1;exitX=0.5;exitY=0;exitDx=0;exitDy=0;entryX=0.5;entryY=1;entryDx=0;entryDy=0;strokeWidth=1;fillColor=#f5f5f5;strokeColor=#666666;" edge="1" parent="1" source="vW2DTRvJvBZjn9QqDSF9-208" target="vW2DTRvJvBZjn9QqDSF9-209">
          <mxGeometry relative="1" as="geometry" />
        </mxCell>
        <mxCell id="vW2DTRvJvBZjn9QqDSF9-226" value="N" style="edgeStyle=orthogonalEdgeStyle;curved=1;rounded=0;orthogonalLoop=1;jettySize=auto;html=1;exitX=1;exitY=0.5;exitDx=0;exitDy=0;entryX=0;entryY=0.5;entryDx=0;entryDy=0;strokeWidth=2;fillColor=#ffe6cc;strokeColor=#d79b00;" edge="1" parent="1" source="vW2DTRvJvBZjn9QqDSF9-208" target="vW2DTRvJvBZjn9QqDSF9-222">
          <mxGeometry relative="1" as="geometry" />
        </mxCell>
        <mxCell id="vW2DTRvJvBZjn9QqDSF9-208" value="author" style="ellipse;whiteSpace=wrap;html=1;align=center;fillColor=#f5f5f5;strokeColor=#666666;fontColor=#333333;" vertex="1" parent="1">
          <mxGeometry x="-420" y="-545" width="100" height="40" as="geometry" />
        </mxCell>
        <mxCell id="vW2DTRvJvBZjn9QqDSF9-209" value="name" style="ellipse;whiteSpace=wrap;html=1;align=center;fillColor=#f5f5f5;strokeColor=#666666;fontColor=#333333;" vertex="1" parent="1">
          <mxGeometry x="-420" y="-605" width="100" height="40" as="geometry" />
        </mxCell>
        <mxCell id="vW2DTRvJvBZjn9QqDSF9-229" value="N" style="edgeStyle=orthogonalEdgeStyle;curved=1;rounded=0;orthogonalLoop=1;jettySize=auto;html=1;exitX=1;exitY=0.5;exitDx=0;exitDy=0;entryX=0;entryY=0.5;entryDx=0;entryDy=0;strokeWidth=2;fillColor=#ffe6cc;strokeColor=#d79b00;" edge="1" parent="1" source="vW2DTRvJvBZjn9QqDSF9-221" target="vW2DTRvJvBZjn9QqDSF9-15">
          <mxGeometry relative="1" as="geometry" />
        </mxCell>
        <mxCell id="vW2DTRvJvBZjn9QqDSF9-221" value="has" style="shape=rhombus;perimeter=rhombusPerimeter;whiteSpace=wrap;html=1;align=center;fillColor=#fff2cc;strokeColor=#d6b656;" vertex="1" parent="1">
          <mxGeometry x="-340" y="-410" width="120" height="60" as="geometry" />
        </mxCell>
        <mxCell id="vW2DTRvJvBZjn9QqDSF9-227" value="1" style="edgeStyle=orthogonalEdgeStyle;curved=1;rounded=0;orthogonalLoop=1;jettySize=auto;html=1;exitX=0.5;exitY=1;exitDx=0;exitDy=0;entryX=0.5;entryY=0;entryDx=0;entryDy=0;strokeWidth=2;fillColor=#ffe6cc;strokeColor=#d79b00;" edge="1" parent="1" source="vW2DTRvJvBZjn9QqDSF9-222" target="vW2DTRvJvBZjn9QqDSF9-15">
          <mxGeometry relative="1" as="geometry" />
        </mxCell>
        <mxCell id="vW2DTRvJvBZjn9QqDSF9-222" value="has" style="shape=rhombus;perimeter=rhombusPerimeter;whiteSpace=wrap;html=1;align=center;fillColor=#fff2cc;strokeColor=#d6b656;" vertex="1" parent="1">
          <mxGeometry x="-230" y="-610" width="120" height="60" as="geometry" />
        </mxCell>
        <mxCell id="vW2DTRvJvBZjn9QqDSF9-224" value="content" style="ellipse;whiteSpace=wrap;html=1;align=center;fillColor=#f5f5f5;strokeColor=#666666;fontColor=#333333;" vertex="1" parent="1">
          <mxGeometry x="-700" y="-600" width="100" height="40" as="geometry" />
        </mxCell>
        <mxCell id="vW2DTRvJvBZjn9QqDSF9-242" value="N" style="edgeStyle=orthogonalEdgeStyle;curved=1;rounded=0;orthogonalLoop=1;jettySize=auto;html=1;exitX=1;exitY=0.5;exitDx=0;exitDy=0;strokeWidth=2;fillColor=#e1d5e7;strokeColor=#9673a6;" edge="1" parent="1" source="vW2DTRvJvBZjn9QqDSF9-232" target="vW2DTRvJvBZjn9QqDSF9-240">
          <mxGeometry relative="1" as="geometry" />
        </mxCell>
        <mxCell id="vW2DTRvJvBZjn9QqDSF9-244" value="N" style="edgeStyle=orthogonalEdgeStyle;curved=1;rounded=0;orthogonalLoop=1;jettySize=auto;html=1;exitX=1;exitY=0.5;exitDx=0;exitDy=0;strokeWidth=2;fillColor=#e1d5e7;strokeColor=#9673a6;" edge="1" parent="1" source="vW2DTRvJvBZjn9QqDSF9-232" target="vW2DTRvJvBZjn9QqDSF9-241">
          <mxGeometry x="0.15" y="-20" relative="1" as="geometry">
            <mxPoint as="offset" />
          </mxGeometry>
        </mxCell>
        <mxCell id="vW2DTRvJvBZjn9QqDSF9-247" style="edgeStyle=orthogonalEdgeStyle;curved=1;rounded=0;orthogonalLoop=1;jettySize=auto;html=1;exitX=0.5;exitY=0;exitDx=0;exitDy=0;entryX=0.447;entryY=1.042;entryDx=0;entryDy=0;entryPerimeter=0;strokeWidth=1;" edge="1" parent="1" source="vW2DTRvJvBZjn9QqDSF9-232" target="vW2DTRvJvBZjn9QqDSF9-233">
          <mxGeometry relative="1" as="geometry" />
        </mxCell>
        <mxCell id="vW2DTRvJvBZjn9QqDSF9-248" style="edgeStyle=orthogonalEdgeStyle;curved=1;rounded=0;orthogonalLoop=1;jettySize=auto;html=1;exitX=0.5;exitY=0;exitDx=0;exitDy=0;entryX=0.5;entryY=1;entryDx=0;entryDy=0;strokeWidth=1;" edge="1" parent="1" source="vW2DTRvJvBZjn9QqDSF9-232" target="vW2DTRvJvBZjn9QqDSF9-238">
          <mxGeometry relative="1" as="geometry" />
        </mxCell>
        <mxCell id="vW2DTRvJvBZjn9QqDSF9-232" value="Comments" style="whiteSpace=wrap;html=1;align=center;fillColor=#fff2cc;strokeColor=#d6b656;" vertex="1" parent="1">
          <mxGeometry x="-940" y="-400" width="100" height="40" as="geometry" />
        </mxCell>
        <mxCell id="vW2DTRvJvBZjn9QqDSF9-233" value="&lt;u&gt;date&lt;/u&gt;" style="ellipse;whiteSpace=wrap;html=1;align=center;fillColor=#f9f7ed;strokeColor=#36393d;" vertex="1" parent="1">
          <mxGeometry x="-1010" y="-460" width="100" height="40" as="geometry" />
        </mxCell>
        <mxCell id="vW2DTRvJvBZjn9QqDSF9-238" value="text" style="ellipse;whiteSpace=wrap;html=1;align=center;fillColor=#f9f7ed;strokeColor=#36393d;" vertex="1" parent="1">
          <mxGeometry x="-880" y="-460" width="100" height="40" as="geometry" />
        </mxCell>
        <mxCell id="vW2DTRvJvBZjn9QqDSF9-243" value="1" style="edgeStyle=orthogonalEdgeStyle;curved=1;rounded=0;orthogonalLoop=1;jettySize=auto;html=1;exitX=1;exitY=0.5;exitDx=0;exitDy=0;strokeWidth=2;fillColor=#e1d5e7;strokeColor=#9673a6;" edge="1" parent="1" source="vW2DTRvJvBZjn9QqDSF9-240" target="vW2DTRvJvBZjn9QqDSF9-198">
          <mxGeometry relative="1" as="geometry" />
        </mxCell>
        <mxCell id="vW2DTRvJvBZjn9QqDSF9-240" value="has" style="shape=rhombus;perimeter=rhombusPerimeter;whiteSpace=wrap;html=1;align=center;fillColor=#e1d5e7;strokeColor=#9673a6;" vertex="1" parent="1">
          <mxGeometry x="-740" y="-410" width="120" height="60" as="geometry" />
        </mxCell>
        <mxCell id="vW2DTRvJvBZjn9QqDSF9-245" value="1" style="edgeStyle=orthogonalEdgeStyle;curved=1;rounded=0;orthogonalLoop=1;jettySize=auto;html=1;exitX=0.5;exitY=1;exitDx=0;exitDy=0;strokeWidth=2;fillColor=#e1d5e7;strokeColor=#9673a6;" edge="1" parent="1" source="vW2DTRvJvBZjn9QqDSF9-241" target="vW2DTRvJvBZjn9QqDSF9-164">
          <mxGeometry relative="1" as="geometry" />
        </mxCell>
        <mxCell id="vW2DTRvJvBZjn9QqDSF9-241" value="has" style="shape=rhombus;perimeter=rhombusPerimeter;whiteSpace=wrap;html=1;align=center;fillColor=#e1d5e7;strokeColor=#9673a6;" vertex="1" parent="1">
          <mxGeometry x="-760" y="-120" width="120" height="60" as="geometry" />
        </mxCell>
        <mxCell id="vW2DTRvJvBZjn9QqDSF9-252" style="edgeStyle=orthogonalEdgeStyle;curved=1;rounded=0;orthogonalLoop=1;jettySize=auto;html=1;exitX=0.5;exitY=0;exitDx=0;exitDy=0;entryX=0.5;entryY=1;entryDx=0;entryDy=0;strokeWidth=1;" edge="1" parent="1" source="vW2DTRvJvBZjn9QqDSF9-249" target="vW2DTRvJvBZjn9QqDSF9-251">
          <mxGeometry relative="1" as="geometry" />
        </mxCell>
        <mxCell id="vW2DTRvJvBZjn9QqDSF9-253" style="edgeStyle=orthogonalEdgeStyle;curved=1;rounded=0;orthogonalLoop=1;jettySize=auto;html=1;exitX=0.5;exitY=0;exitDx=0;exitDy=0;entryX=0.5;entryY=1;entryDx=0;entryDy=0;strokeWidth=1;" edge="1" parent="1" source="vW2DTRvJvBZjn9QqDSF9-249" target="vW2DTRvJvBZjn9QqDSF9-250">
          <mxGeometry relative="1" as="geometry" />
        </mxCell>
        <mxCell id="vW2DTRvJvBZjn9QqDSF9-256" value="N" style="edgeStyle=orthogonalEdgeStyle;curved=1;rounded=0;orthogonalLoop=1;jettySize=auto;html=1;exitX=1;exitY=0.5;exitDx=0;exitDy=0;entryX=0;entryY=0.5;entryDx=0;entryDy=0;strokeWidth=2;fillColor=#e1d5e7;strokeColor=#9673a6;" edge="1" parent="1" source="vW2DTRvJvBZjn9QqDSF9-249" target="vW2DTRvJvBZjn9QqDSF9-255">
          <mxGeometry relative="1" as="geometry">
            <mxPoint x="-1125" y="-380" as="targetPoint" />
          </mxGeometry>
        </mxCell>
        <mxCell id="vW2DTRvJvBZjn9QqDSF9-258" value="N" style="edgeStyle=orthogonalEdgeStyle;curved=1;rounded=0;orthogonalLoop=1;jettySize=auto;html=1;exitX=0.5;exitY=1;exitDx=0;exitDy=0;strokeWidth=2;fillColor=#e1d5e7;strokeColor=#9673a6;" edge="1" parent="1" source="vW2DTRvJvBZjn9QqDSF9-249" target="vW2DTRvJvBZjn9QqDSF9-254">
          <mxGeometry relative="1" as="geometry" />
        </mxCell>
        <mxCell id="vW2DTRvJvBZjn9QqDSF9-249" value="Replies" style="whiteSpace=wrap;html=1;align=center;fillColor=#fff2cc;strokeColor=#d6b656;" vertex="1" parent="1">
          <mxGeometry x="-1255" y="-400" width="100" height="40" as="geometry" />
        </mxCell>
        <mxCell id="vW2DTRvJvBZjn9QqDSF9-250" value="&lt;u&gt;date&lt;/u&gt;" style="ellipse;whiteSpace=wrap;html=1;align=center;fillColor=#f9f7ed;strokeColor=#36393d;" vertex="1" parent="1">
          <mxGeometry x="-1320" y="-460" width="100" height="40" as="geometry" />
        </mxCell>
        <mxCell id="vW2DTRvJvBZjn9QqDSF9-251" value="text" style="ellipse;whiteSpace=wrap;html=1;align=center;fillColor=#f9f7ed;strokeColor=#36393d;" vertex="1" parent="1">
          <mxGeometry x="-1190" y="-460" width="100" height="40" as="geometry" />
        </mxCell>
        <mxCell id="vW2DTRvJvBZjn9QqDSF9-259" value="1" style="edgeStyle=orthogonalEdgeStyle;curved=1;rounded=0;orthogonalLoop=1;jettySize=auto;html=1;exitX=0.5;exitY=1;exitDx=0;exitDy=0;entryX=0;entryY=0.5;entryDx=0;entryDy=0;strokeWidth=2;fillColor=#e1d5e7;strokeColor=#9673a6;" edge="1" parent="1" source="vW2DTRvJvBZjn9QqDSF9-254" target="vW2DTRvJvBZjn9QqDSF9-164">
          <mxGeometry x="0.1765" y="60" relative="1" as="geometry">
            <mxPoint as="offset" />
          </mxGeometry>
        </mxCell>
        <mxCell id="vW2DTRvJvBZjn9QqDSF9-254" value="has" style="shape=rhombus;perimeter=rhombusPerimeter;whiteSpace=wrap;html=1;align=center;fillColor=#e1d5e7;strokeColor=#9673a6;" vertex="1" parent="1">
          <mxGeometry x="-1070" y="-200" width="120" height="60" as="geometry" />
        </mxCell>
        <mxCell id="vW2DTRvJvBZjn9QqDSF9-257" value="1" style="edgeStyle=orthogonalEdgeStyle;curved=1;rounded=0;orthogonalLoop=1;jettySize=auto;html=1;exitX=1;exitY=0.5;exitDx=0;exitDy=0;entryX=0;entryY=0.5;entryDx=0;entryDy=0;strokeWidth=2;fillColor=#e1d5e7;strokeColor=#9673a6;" edge="1" parent="1" source="vW2DTRvJvBZjn9QqDSF9-255" target="vW2DTRvJvBZjn9QqDSF9-232">
          <mxGeometry relative="1" as="geometry">
            <Array as="points">
              <mxPoint x="-960" y="-380" />
              <mxPoint x="-960" y="-380" />
            </Array>
          </mxGeometry>
        </mxCell>
        <mxCell id="vW2DTRvJvBZjn9QqDSF9-255" value="has" style="shape=rhombus;perimeter=rhombusPerimeter;whiteSpace=wrap;html=1;align=center;fillColor=#e1d5e7;strokeColor=#9673a6;" vertex="1" parent="1">
          <mxGeometry x="-1100" y="-410" width="120" height="60" as="geometry" />
        </mxCell>
        <mxCell id="vW2DTRvJvBZjn9QqDSF9-260" value="has" style="shape=rhombus;perimeter=rhombusPerimeter;whiteSpace=wrap;html=1;align=center;fillColor=#ffe6cc;strokeColor=#d79b00;" vertex="1" parent="1">
          <mxGeometry x="-410" y="-130" width="120" height="60" as="geometry" />
        </mxCell>
        <mxCell id="vW2DTRvJvBZjn9QqDSF9-262" value="M" style="edgeStyle=orthogonalEdgeStyle;curved=1;rounded=0;orthogonalLoop=1;jettySize=auto;html=1;exitX=0.5;exitY=1;exitDx=0;exitDy=0;entryX=0.5;entryY=0;entryDx=0;entryDy=0;strokeWidth=2;fillColor=#ffe6cc;strokeColor=#d79b00;" edge="1" parent="1" source="vW2DTRvJvBZjn9QqDSF9-15" target="vW2DTRvJvBZjn9QqDSF9-260">
          <mxGeometry relative="1" as="geometry">
            <mxPoint x="-110" y="-350" as="sourcePoint" />
            <mxPoint x="-90" y="-120" as="targetPoint" />
          </mxGeometry>
        </mxCell>
        <mxCell id="vW2DTRvJvBZjn9QqDSF9-263" value="N" style="edgeStyle=orthogonalEdgeStyle;curved=1;rounded=0;orthogonalLoop=1;jettySize=auto;html=1;exitX=0.5;exitY=0;exitDx=0;exitDy=0;entryX=0.5;entryY=1;entryDx=0;entryDy=0;strokeWidth=2;fillColor=#ffe6cc;strokeColor=#d79b00;" edge="1" parent="1" source="vW2DTRvJvBZjn9QqDSF9-164" target="vW2DTRvJvBZjn9QqDSF9-260">
          <mxGeometry relative="1" as="geometry">
            <mxPoint x="375" y="180" as="sourcePoint" />
            <mxPoint x="-90" y="-60" as="targetPoint" />
          </mxGeometry>
        </mxCell>
        <mxCell id="vW2DTRvJvBZjn9QqDSF9-269" value="N" style="edgeStyle=orthogonalEdgeStyle;curved=1;rounded=0;orthogonalLoop=1;jettySize=auto;html=1;exitX=0.5;exitY=0;exitDx=0;exitDy=0;entryX=0;entryY=0.5;entryDx=0;entryDy=0;strokeWidth=2;fillColor=#e1d5e7;strokeColor=#9673a6;" edge="1" parent="1" source="vW2DTRvJvBZjn9QqDSF9-264" target="vW2DTRvJvBZjn9QqDSF9-268">
          <mxGeometry x="-0.2593" y="-30" relative="1" as="geometry">
            <mxPoint as="offset" />
          </mxGeometry>
        </mxCell>
        <mxCell id="vW2DTRvJvBZjn9QqDSF9-271" style="edgeStyle=orthogonalEdgeStyle;curved=1;rounded=0;orthogonalLoop=1;jettySize=auto;html=1;exitX=0.5;exitY=1;exitDx=0;exitDy=0;strokeWidth=1;" edge="1" parent="1" source="vW2DTRvJvBZjn9QqDSF9-264" target="vW2DTRvJvBZjn9QqDSF9-266">
          <mxGeometry relative="1" as="geometry" />
        </mxCell>
        <mxCell id="vW2DTRvJvBZjn9QqDSF9-272" style="edgeStyle=orthogonalEdgeStyle;curved=1;rounded=0;orthogonalLoop=1;jettySize=auto;html=1;exitX=0.5;exitY=1;exitDx=0;exitDy=0;strokeWidth=1;" edge="1" parent="1" source="vW2DTRvJvBZjn9QqDSF9-264" target="vW2DTRvJvBZjn9QqDSF9-265">
          <mxGeometry relative="1" as="geometry" />
        </mxCell>
        <mxCell id="vW2DTRvJvBZjn9QqDSF9-273" style="edgeStyle=orthogonalEdgeStyle;curved=1;rounded=0;orthogonalLoop=1;jettySize=auto;html=1;exitX=0.5;exitY=1;exitDx=0;exitDy=0;entryX=0.5;entryY=0;entryDx=0;entryDy=0;strokeWidth=1;" edge="1" parent="1" source="vW2DTRvJvBZjn9QqDSF9-264" target="vW2DTRvJvBZjn9QqDSF9-267">
          <mxGeometry relative="1" as="geometry" />
        </mxCell>
        <mxCell id="vW2DTRvJvBZjn9QqDSF9-264" value="Testimonials&amp;nbsp;" style="whiteSpace=wrap;html=1;align=center;fillColor=#fff2cc;strokeColor=#d6b656;" vertex="1" parent="1">
          <mxGeometry x="-1340" y="240" width="100" height="40" as="geometry" />
        </mxCell>
        <mxCell id="vW2DTRvJvBZjn9QqDSF9-265" value="&lt;u&gt;id&lt;/u&gt;" style="ellipse;whiteSpace=wrap;html=1;align=center;fillColor=#f9f7ed;strokeColor=#36393d;" vertex="1" parent="1">
          <mxGeometry x="-1350" y="380" width="100" height="40" as="geometry" />
        </mxCell>
        <mxCell id="vW2DTRvJvBZjn9QqDSF9-266" value="date" style="ellipse;whiteSpace=wrap;html=1;align=center;fillColor=#f9f7ed;strokeColor=#36393d;" vertex="1" parent="1">
          <mxGeometry x="-1420" y="320" width="100" height="40" as="geometry" />
        </mxCell>
        <mxCell id="vW2DTRvJvBZjn9QqDSF9-267" value="text" style="ellipse;whiteSpace=wrap;html=1;align=center;fillColor=#f9f7ed;strokeColor=#36393d;" vertex="1" parent="1">
          <mxGeometry x="-1280" y="320" width="100" height="40" as="geometry" />
        </mxCell>
        <mxCell id="vW2DTRvJvBZjn9QqDSF9-270" value="1" style="edgeStyle=orthogonalEdgeStyle;curved=1;rounded=0;orthogonalLoop=1;jettySize=auto;html=1;exitX=1;exitY=0.5;exitDx=0;exitDy=0;entryX=0;entryY=0.5;entryDx=0;entryDy=0;strokeWidth=2;fillColor=#e1d5e7;strokeColor=#9673a6;" edge="1" parent="1" source="vW2DTRvJvBZjn9QqDSF9-268" target="vW2DTRvJvBZjn9QqDSF9-164">
          <mxGeometry relative="1" as="geometry" />
        </mxCell>
        <mxCell id="vW2DTRvJvBZjn9QqDSF9-268" value="has" style="shape=rhombus;perimeter=rhombusPerimeter;whiteSpace=wrap;html=1;align=center;fillColor=#e1d5e7;strokeColor=#9673a6;" vertex="1" parent="1">
          <mxGeometry x="-1160" y="70" width="120" height="60" as="geometry" />
        </mxCell>
        <mxCell id="vW2DTRvJvBZjn9QqDSF9-281" style="edgeStyle=orthogonalEdgeStyle;curved=1;rounded=0;orthogonalLoop=1;jettySize=auto;html=1;exitX=0.5;exitY=1;exitDx=0;exitDy=0;entryX=0.5;entryY=0;entryDx=0;entryDy=0;strokeWidth=1;" edge="1" parent="1" source="vW2DTRvJvBZjn9QqDSF9-274" target="vW2DTRvJvBZjn9QqDSF9-276">
          <mxGeometry relative="1" as="geometry" />
        </mxCell>
        <mxCell id="vW2DTRvJvBZjn9QqDSF9-282" style="edgeStyle=orthogonalEdgeStyle;curved=1;rounded=0;orthogonalLoop=1;jettySize=auto;html=1;exitX=0.5;exitY=1;exitDx=0;exitDy=0;entryX=0.586;entryY=0.024;entryDx=0;entryDy=0;entryPerimeter=0;strokeWidth=1;" edge="1" parent="1" source="vW2DTRvJvBZjn9QqDSF9-274" target="vW2DTRvJvBZjn9QqDSF9-275">
          <mxGeometry relative="1" as="geometry" />
        </mxCell>
        <mxCell id="vW2DTRvJvBZjn9QqDSF9-283" style="edgeStyle=orthogonalEdgeStyle;curved=1;rounded=0;orthogonalLoop=1;jettySize=auto;html=1;exitX=0.5;exitY=1;exitDx=0;exitDy=0;entryX=0.5;entryY=0;entryDx=0;entryDy=0;strokeWidth=1;" edge="1" parent="1" source="vW2DTRvJvBZjn9QqDSF9-274" target="vW2DTRvJvBZjn9QqDSF9-280">
          <mxGeometry relative="1" as="geometry" />
        </mxCell>
        <mxCell id="vW2DTRvJvBZjn9QqDSF9-284" style="edgeStyle=orthogonalEdgeStyle;curved=1;rounded=0;orthogonalLoop=1;jettySize=auto;html=1;exitX=0.5;exitY=1;exitDx=0;exitDy=0;entryX=0.5;entryY=0;entryDx=0;entryDy=0;strokeWidth=1;" edge="1" parent="1" source="vW2DTRvJvBZjn9QqDSF9-274" target="vW2DTRvJvBZjn9QqDSF9-278">
          <mxGeometry relative="1" as="geometry" />
        </mxCell>
        <mxCell id="vW2DTRvJvBZjn9QqDSF9-285" style="edgeStyle=orthogonalEdgeStyle;curved=1;rounded=0;orthogonalLoop=1;jettySize=auto;html=1;exitX=0.5;exitY=1;exitDx=0;exitDy=0;entryX=0.5;entryY=0;entryDx=0;entryDy=0;strokeWidth=1;" edge="1" parent="1" source="vW2DTRvJvBZjn9QqDSF9-274" target="vW2DTRvJvBZjn9QqDSF9-279">
          <mxGeometry relative="1" as="geometry" />
        </mxCell>
        <mxCell id="vW2DTRvJvBZjn9QqDSF9-274" value="&lt;font style=&quot;font-size: 18px&quot;&gt;Order&lt;/font&gt;" style="whiteSpace=wrap;html=1;align=center;fillColor=#dae8fc;strokeColor=#6c8ebf;" vertex="1" parent="1">
          <mxGeometry x="-140" y="590" width="100" height="40" as="geometry" />
        </mxCell>
        <mxCell id="vW2DTRvJvBZjn9QqDSF9-275" value="&lt;u&gt;id&lt;/u&gt;" style="ellipse;whiteSpace=wrap;html=1;align=center;fillColor=#f9f7ed;strokeColor=#36393d;" vertex="1" parent="1">
          <mxGeometry x="-280" y="670" width="100" height="40" as="geometry" />
        </mxCell>
        <mxCell id="vW2DTRvJvBZjn9QqDSF9-276" value="date" style="ellipse;whiteSpace=wrap;html=1;align=center;fillColor=#f9f7ed;strokeColor=#36393d;" vertex="1" parent="1">
          <mxGeometry x="-150" y="670" width="100" height="40" as="geometry" />
        </mxCell>
        <mxCell id="vW2DTRvJvBZjn9QqDSF9-278" value="delivery date" style="ellipse;whiteSpace=wrap;html=1;align=center;fillColor=#f9f7ed;strokeColor=#36393d;" vertex="1" parent="1">
          <mxGeometry x="-20" y="670" width="100" height="40" as="geometry" />
        </mxCell>
        <mxCell id="vW2DTRvJvBZjn9QqDSF9-279" value="follow up date" style="ellipse;whiteSpace=wrap;html=1;align=center;dashed=1;fillColor=#f9f7ed;strokeColor=#36393d;" vertex="1" parent="1">
          <mxGeometry x="110" y="670" width="100" height="40" as="geometry" />
        </mxCell>
        <mxCell id="vW2DTRvJvBZjn9QqDSF9-280" value="qty" style="ellipse;whiteSpace=wrap;html=1;align=center;fillColor=#f9f7ed;strokeColor=#36393d;" vertex="1" parent="1">
          <mxGeometry x="-410" y="670" width="100" height="40" as="geometry" />
        </mxCell>
        <mxCell id="vW2DTRvJvBZjn9QqDSF9-288" value="has" style="shape=rhombus;perimeter=rhombusPerimeter;whiteSpace=wrap;html=1;align=center;fillColor=#d5e8d4;strokeColor=#82b366;" vertex="1" parent="1">
          <mxGeometry x="-40" y="160" width="120" height="60" as="geometry" />
        </mxCell>
        <mxCell id="vW2DTRvJvBZjn9QqDSF9-289" value="M" style="edgeStyle=orthogonalEdgeStyle;curved=1;rounded=0;orthogonalLoop=1;jettySize=auto;html=1;exitX=0;exitY=0.5;exitDx=0;exitDy=0;entryX=0.5;entryY=0;entryDx=0;entryDy=0;strokeWidth=2;fillColor=#d5e8d4;strokeColor=#82b366;" edge="1" parent="1" source="vW2DTRvJvBZjn9QqDSF9-288" target="vW2DTRvJvBZjn9QqDSF9-274">
          <mxGeometry relative="1" as="geometry">
            <mxPoint x="-160" y="180" as="sourcePoint" />
            <mxPoint x="-50" y="580" as="targetPoint" />
          </mxGeometry>
        </mxCell>
        <mxCell id="vW2DTRvJvBZjn9QqDSF9-291" value="N" style="edgeStyle=orthogonalEdgeStyle;curved=1;rounded=0;orthogonalLoop=1;jettySize=auto;html=1;exitX=0;exitY=0.5;exitDx=0;exitDy=0;strokeWidth=2;fillColor=#d5e8d4;strokeColor=#82b366;entryX=1;entryY=0.5;entryDx=0;entryDy=0;" edge="1" parent="1" source="vW2DTRvJvBZjn9QqDSF9-1" target="vW2DTRvJvBZjn9QqDSF9-288">
          <mxGeometry relative="1" as="geometry">
            <mxPoint x="-145" y="20" as="sourcePoint" />
            <mxPoint x="90" y="190" as="targetPoint" />
          </mxGeometry>
        </mxCell>
      </root>
    </mxGraphModel>
  </diagram>
</mxfile>
